<svg aria-hidden="true" style="position: absolute; width: 0; height: 0; overflow: hidden;" version="1.1" xmlns="http://www.w3.org/2000/svg" xmlns:xlink="http://www.w3.org/1999/xlink">
<defs>
<symbol id="download" viewBox="0 0 36 36">
<path d="M26.8989 16.4093C26.7166 16.0065 26.3161 15.75 25.8751 15.75H21.3751V1.125C21.3751 0.504 20.8711 0 20.2501 0H15.7501C15.1291 0 14.6251 0.504 14.6251 1.125V15.75H10.1251C9.68414 15.75 9.28364 16.0088 9.10139 16.4093C8.91689 16.812 8.98889 17.2822 9.27914 17.6152L17.1541 26.6153C17.3679 26.8605 17.6761 27 18.0001 27C18.3241 27 18.6324 26.8583 18.8461 26.6153L26.7211 17.6152C27.0136 17.2845 27.0811 16.812 26.8989 16.4093Z"/>
<path d="M30.375 24.75V31.5H5.625V24.75H1.125V33.75C1.125 34.9942 2.133 36 3.375 36H32.625C33.8692 36 34.875 34.9942 34.875 33.75V24.75H30.375Z"/>
</symbol>
</defs>
</svg>
